<?xml version="1.0" encoding="UTF-8"?>
<svg id="drawing2" xmlns="http://www.w3.org/2000/svg" viewBox="0 0 126 32">
  <defs>
    <style>
      .cls-1 {
        fill: #000;
        stroke-width: 0px;
      }
    </style>
  </defs>
  <path class="cls-1" d="M29.65,7.6c-.26-.29-.76-.61-1.65-.86.11-.6.49-.79.49-.79.27-1.34-.88-1.34-1.65-1.38-.55-.03-.68,1.16-.72,1.84-.71-.07-1.55-.12-2.55-.12-.58,0-1.09.02-1.57.05v-2.97c.38-.57.83-.76.83-.76,1.01-.45,1.11-1.28.31-1.34-1.55-.12-2.07.74-2.25,1.38h-9.28v.28s.06,1.77-.01,3.6h-.28l-.17,2h.3c-.06.5-.13.95-.22,1.31-.03.13-.09.23-.14.34,0,0-.01,0-.02,0,0,0-.54-.2-1.3,1.2-.6.21-1.15.18-1.18.18-2.19-.32-3.93.05-5.16,1.11-1.76,1.52-2.03,4.05-2.03,5.42,0,.35.14.65.4.91.89.86,3.1.94,3.89.94.16,0,.26,0,.28,0h8.3c-4.61,2.32-3.79,7.92-3.76,8.1.11.73,1.64,3.69,6.67,3.69,4.62,0,6.04-1.51,7.07-2.61l.23-.24c1.06-1.1,2.82-2.36,4.01-3.02,1.35-.75,1.44-3.05,1.44-3.15v-14.37c0-.06.02-.36-.3-.71ZM23.52,7.52c3.06,0,4.92.64,5.06.94-.14.34-2.01.98-5.06.98s-4.84-.61-5.05-.96c.21-.35,2.06-.96,5.05-.96ZM22.16,1.92c.95-.3.19.1-.41.72h-.34c.14-.28.36-.59.75-.72ZM13.98,18.19c-1.34.15-3.55-.04-4.7-3.19-.74-2.02-1.78-2.74-2.44-3,.53-.02,1.09,0,1.71.08.02,0,.91.04,1.77-.37.56.22,1.4.63,2.03,1.33l1.19-1.54s-.78-.66-1.94-1.14c.06-.13.13-.25.17-.41.1-.4.18-.9.24-1.45h1.96v-2h-1.82c.02-.47.03-.92.03-1.34h8.95l.33.3v.9c-2.39.22-3.51.79-4,1.3-.41.42-.42.79-.42.83v4.12s-.39,1.43-.02,2.4c0,0,.01.02.02.03v2.12c0,.14-.02.27-.05.4-.04,0-.08,0-.12,0,0,0-.04.04-.05.04-1.2.25-2.22.5-2.85.57ZM14.91,19.65s-.05.02-.07.03v-.03h.07ZM29.41,22.68s0,.11-.02.25c-1.13.87-2.11,1.85-3.24,2.9-1.23,1.15-3.03,1.57-5.03-.58-2-2.15-4.22-3.72-5.68-3.92-1.02-.13-2.05.08-2.74.44.72-.8,1.73-1.48,3.14-1.9.03-.01.31-.16.63-.43,1.32-.06,3.93.13,6.44,2.09,0,0,.92-1.21,1.1-2.07,0,0-2.69-2.12-6.48-1.92,0,0,0,0,0-.01,0-.02.02-.04.02-.06,0,0-.01,0-.02,0,.01-.1.03-.2.03-.31v-1.68c1.58.8,5.96,1.25,6.92,1v-2.5c-.52.05-4.21.34-6.92-1.09v-1.56c.78.65,3.13,1.13,5.93,1.13s5.07-.46,5.89-1.1v11.3Z"/>
  <path class="cls-1" d="M51.09,12.98c0-.22-.05-.44-.14-.67s-.22-.42-.4-.6c-.18-.18-.38-.32-.63-.44-.24-.11-.52-.16-.82-.16h-7.13c-.37,0-.77.08-1.21.25-.43.16-.85.37-1.24.61-.4.24-.74.51-1.05.8-.3.29-.5.56-.6.8l-3.01,6.54c-.19.37-.28.66-.28.88,0,.26.2.39.6.39h1.98c.35,0,.63-.1.84-.29.21-.2.42-.52.64-.98l.6-1.29c.08-.14.17-.24.26-.3.1-.06.23-.09.4-.09h4.56c.23,0,.34.07.34.21,0,.05,0,.1-.03.16s-.04.13-.08.21l-.51,1.09c-.19.37-.28.66-.28.88,0,.26.19.39.57.39h1.98c.35,0,.63-.1.84-.29.22-.2.43-.52.65-.98l2.99-6.54c.09-.13.14-.33.14-.58ZM46.83,14.36l-.51,1.14c-.07.08-.15.16-.23.22-.08.07-.18.1-.28.1h-4.88c-.08,0-.14-.03-.16-.08-.03-.06-.05-.12-.05-.19l.57-1.2c.18-.22.41-.39.7-.5.28-.11.55-.17.79-.17h3.11c.24,0,.46.05.65.15.2.1.29.25.29.46v.06Z"/>
  <path class="cls-1" d="M81.02,12.92c.14-.31.21-.6.21-.86s-.08-.5-.23-.68c-.16-.18-.4-.28-.74-.28h-11.13s-.02,0-.03,0h-1.67s0,0,0,0h-3.44c-.33,0-.71.1-1.13.29-.42.2-.88.44-1.35.73-.48.3-.96.62-1.45.96s-.96.66-1.41.96c-.18-.3-.36-.62-.54-.96s-.38-.66-.59-.96c-.21-.29-.45-.54-.71-.73-.26-.2-.56-.29-.9-.29h-2.45s-.06.03-.09.09l-.06.07c.19.28.38.58.56.88.18.31.37.65.57,1.02.2.38.42.79.67,1.25.25.46.54.98.88,1.55-.57.46-1.16.92-1.77,1.4-.61.48-1.22.94-1.83,1.39-.61.46-1.23.89-1.85,1.31-.62.42-1.22.8-1.81,1.14l-.02.06s0,.04,0,.04c0,.01,0,.02,0,.03,0,.02.01.03.03.03h3.44c.34,0,.72-.1,1.15-.29.42-.2.87-.44,1.33-.72.46-.29.94-.61,1.43-.95.49-.34.97-.66,1.44-.96.18.3.36.62.54.96.18.34.38.66.59.95.21.29.45.53.71.72.26.2.56.29.9.29h2.45s.08-.04.12-.1l.03-.06c-.21-.26-.41-.54-.61-.85-.19-.31-.4-.65-.6-1.03-.21-.37-.44-.79-.69-1.25-.25-.46-.54-.97-.86-1.54,1.28-.94,2.52-1.87,3.72-2.79.85-.65,1.7-1.24,2.56-1.8.33.12.64.28.87.49.86.8,1.86,1.23,3.26,1.23h0s.03,0,.05,0h5.88c.24,0,.36.05.36.15,0,.07-.06.22-.16.46-.19.23-.42.39-.68.49s-.52.15-.75.15h-6.7,0c-1.1-.05-.95-1.2-.95-1.2,0,0-.1.25-.98,2.14l-1.95,4.22c-.19.37-.28.66-.28.88,0,.26.2.39.6.39h10.61c.25,0,.5-.05.74-.16.24-.1.47-.24.68-.41.21-.17.4-.36.56-.58.16-.22.3-.44.41-.67l.97-2.13c.07-.14.1-.28.1-.42,0-.29-.1-.56-.31-.8.12-.1.25-.2.38-.29.14-.09.27-.19.4-.29.13-.1.25-.2.35-.3.1-.1.18-.21.23-.33l.96-2.09ZM74.94,17.95c-.04.08-.09.17-.15.27s-.13.19-.2.28c-.08.08-.16.16-.25.22-.09.06-.18.09-.27.09h-4.72c-.1,0-.15-.08-.15-.24,0-.14.03-.28.1-.4.06-.13.15-.26.26-.4.14-.14.26-.21.36-.21h4.45c.4,0,.6.09.6.26,0,.05-.02.1-.03.15Z"/>
  <path class="cls-1" d="M95.65,12.98c0-.22-.05-.44-.14-.67s-.22-.42-.4-.6c-.18-.18-.38-.32-.63-.44-.24-.11-.52-.16-.82-.16h-7.13c-.37,0-.77.08-1.21.25-.43.16-.85.37-1.24.61-.4.24-.74.51-1.05.8-.3.29-.5.56-.6.8l-2.47,5.36c-.08.12-.12.31-.12.58,0,.23.04.46.13.68.09.22.22.42.39.6.17.18.38.32.62.44.24.11.52.16.83.16h7.11c.37,0,.77-.08,1.21-.25.44-.16.85-.37,1.25-.61.39-.24.74-.51,1.04-.8s.51-.56.62-.79l2.45-5.36c.09-.13.14-.33.14-.58ZM91.38,14.36l-1.74,3.77c-.18.22-.41.39-.7.5-.28.11-.55.17-.8.17h-3.1c-.25,0-.47-.05-.66-.15s-.29-.25-.29-.46v-.06l1.74-3.77c.2-.23.45-.4.75-.51.3-.11.57-.17.82-.17h3.04c.24,0,.46.05.65.15.19.1.29.25.29.46v.06Z"/>
  <path class="cls-1" d="M124.97,11.11h-11.65s-.03,0-.04,0h-4.71s-.06,0-.09,0h-7.13c-.37,0-.77.08-1.21.25-.43.16-.85.37-1.24.61-.4.24-.74.51-1.05.8-.3.29-.5.56-.6.8l-2.47,5.36c-.08.12-.12.31-.12.58,0,.23.04.46.13.68.09.22.22.42.39.6.17.18.38.32.62.44.24.11.52.16.83.16h7.11c.37,0,.77-.08,1.21-.25.44-.16.85-.37,1.25-.61.39-.24.74-.51,1.04-.8.3-.29.51-.56.62-.79l2.45-5.36c.09-.13.14-.33.14-.58,0-.22-.05-.44-.14-.67-.06-.16-.16-.31-.27-.45.43.13.85.31,1.14.58.76.71,1.65,1.11,2.81,1.19.06.02.13.04.22.04h1.49c.13,0,.2.09.2.27,0,0-.01.06-.03.16l-2.75,5.99c-.08.18-.14.34-.2.48-.05.14-.07.26-.07.37,0,.28.19.42.58.42h1.97c.35,0,.64-.1.86-.32.22-.21.43-.53.63-.96l2.75-5.99c.06-.11.15-.21.26-.3.12-.09.21-.14.29-.14h2.87c.18,0,.36-.05.54-.16.18-.1.36-.24.52-.4.17-.16.32-.34.46-.54s.25-.39.34-.57c.02-.06.06-.16.1-.3.05-.14.08-.27.08-.38,0-.14-.05-.21-.15-.21ZM106.19,14.36l-1.74,3.77c-.18.22-.41.39-.7.5-.28.11-.55.17-.8.17h-3.1c-.25,0-.47-.05-.66-.15s-.29-.25-.29-.46v-.06l1.74-3.77c.2-.23.45-.4.75-.51.3-.11.57-.17.82-.17h3.04c.24,0,.46.05.65.15.19.1.29.25.29.46v.06Z"/>
  <path class="cls-1" d="M73.32,2.8c-.08.06-.1.17-.04.25l1.35,1.91c.06.08.17.1.25.04l.14-.1.84,1.19.4-.28c.4-.28.53-.74.47-1.09-.05-.29,0-.78.16-1.15l.67-.47c.51-.36.87-.78,1.07-1.18.23-.47.26-.92.03-1.24-.23-.33-.66-.46-1.18-.4-.45.05-.96.25-1.47.61l-.52.37c-.42.09-.99-.04-1.28-.21-.31-.18-.78-.2-1.18.08l-.4.28.88,1.24-.17.12ZM76.66,1.28c.31-.22.74-.15.96.17.22.31.15.74-.17.96-.31.22-.74.15-.96-.17-.22-.31-.15-.74.17-.96ZM75.8,2.5l.19.27-1.72,1.22-.19-.27,1.72-1.22Z"/>
  <polygon class="cls-1" points="73.22 4.81 73.7 5.48 73.93 5.31 73.82 5.15 74.04 4.87 74.48 4.76 74.08 4.2 73.79 3.79 73.4 3.23 73.15 3.6 72.81 3.72 72.69 3.55 72.46 3.72 72.93 4.39 73.22 4.81"/>
  <path class="cls-1" d="M73.09,5.47l-.8-1.14c-1.81,1.29-5.07,4.05-4.86,4.36.22.31,3.83-1.95,5.66-3.22Z"/>
</svg>