<?xml version="1.0" encoding="UTF-8"?>
<svg id="drawing2" xmlns="http://www.w3.org/2000/svg" viewBox="0 0 96 32">
  <defs>
    <style>
      .cls-1 {
        fill: #000;
        stroke-width: 0px;
      }
    </style>
  </defs>
  <path class="cls-1" d="M18.75,12.93c0-.22-.05-.44-.14-.67s-.22-.42-.4-.6c-.18-.18-.38-.32-.63-.44-.24-.11-.52-.16-.82-.16h-7.13c-.37,0-.77.08-1.21.25-.43.16-.85.37-1.24.61-.4.24-.74.51-1.05.8-.3.29-.5.56-.6.8l-3.01,6.54c-.19.37-.28.66-.28.88,0,.26.2.39.6.39h1.98c.35,0,.63-.1.84-.29.21-.2.42-.52.64-.98l.6-1.29c.08-.14.17-.24.26-.3.1-.06.23-.09.4-.09h4.56c.23,0,.34.07.34.21,0,.05,0,.1-.03.16s-.04.13-.08.21l-.51,1.09c-.19.37-.28.66-.28.88,0,.26.19.39.57.39h1.98c.35,0,.63-.1.84-.29.22-.2.43-.52.65-.98l2.99-6.54c.09-.13.14-.33.14-.58ZM14.49,14.31l-.51,1.14c-.07.08-.15.16-.23.22-.08.07-.18.1-.28.1h-4.88c-.08,0-.14-.03-.16-.08-.03-.06-.05-.12-.05-.19l.57-1.2c.18-.22.41-.39.7-.5.28-.11.55-.17.79-.17h3.11c.24,0,.46.05.65.15.2.1.29.25.29.46v.06Z"/>
  <path class="cls-1" d="M48.68,12.87c.14-.31.21-.6.21-.86s-.08-.5-.23-.68c-.16-.18-.4-.28-.74-.28h-11.13s-.02,0-.03,0h-1.67s0,0,0,0h-3.44c-.33,0-.71.1-1.13.29-.42.2-.88.44-1.35.73-.48.3-.96.62-1.45.96s-.96.66-1.41.96c-.18-.3-.36-.62-.54-.96s-.38-.66-.59-.96c-.21-.29-.45-.54-.71-.73-.26-.2-.56-.29-.9-.29h-2.45s-.06.03-.09.09l-.06.07c.19.28.38.58.56.88.18.31.37.65.57,1.02.2.38.42.79.67,1.25.25.46.54.98.88,1.55-.57.46-1.16.92-1.77,1.4-.61.48-1.22.94-1.83,1.39-.61.46-1.23.89-1.85,1.31-.62.42-1.22.8-1.81,1.14l-.02.06s0,.04,0,.04c0,.01,0,.02,0,.03,0,.02.01.03.03.03h3.44c.34,0,.72-.1,1.15-.29.42-.2.87-.44,1.33-.72.46-.29.94-.61,1.43-.95.49-.34.97-.66,1.44-.96.18.3.36.62.54.96.18.34.38.66.59.95.21.29.45.53.71.72.26.2.56.29.9.29h2.45s.08-.04.12-.1l.03-.06c-.21-.26-.41-.54-.61-.85-.19-.31-.4-.65-.6-1.03-.21-.37-.44-.79-.69-1.25-.25-.46-.54-.97-.86-1.54,1.28-.94,2.52-1.87,3.72-2.79.85-.65,1.7-1.24,2.56-1.8.33.12.64.28.87.49.86.8,1.86,1.23,3.26,1.23h0s.03,0,.05,0h5.88c.24,0,.36.05.36.15,0,.07-.06.22-.16.46-.19.23-.42.39-.68.49s-.52.15-.75.15h-6.7,0c-1.1-.05-.95-1.2-.95-1.2,0,0-.1.25-.98,2.14l-1.95,4.22c-.19.37-.28.66-.28.88,0,.26.2.39.6.39h10.61c.25,0,.5-.05.74-.16.24-.1.47-.24.68-.41.21-.17.4-.36.56-.58.16-.22.3-.44.41-.67l.97-2.13c.07-.14.1-.28.1-.42,0-.29-.1-.56-.31-.8.12-.1.25-.2.38-.29.14-.09.27-.19.4-.29.13-.1.25-.2.35-.3.1-.1.18-.21.23-.33l.96-2.09ZM42.6,17.9c-.04.08-.09.17-.15.27s-.13.19-.2.28c-.08.08-.16.16-.25.22-.09.06-.18.09-.27.09h-4.72c-.1,0-.15-.08-.15-.24,0-.14.03-.28.1-.4.06-.13.15-.26.26-.4.14-.14.26-.21.36-.21h4.45c.4,0,.6.09.6.26,0,.05-.02.1-.03.15Z"/>
  <path class="cls-1" d="M63.31,12.93c0-.22-.05-.44-.14-.67s-.22-.42-.4-.6c-.18-.18-.38-.32-.63-.44-.24-.11-.52-.16-.82-.16h-7.13c-.37,0-.77.08-1.21.25-.43.16-.85.37-1.24.61-.4.24-.74.51-1.05.8-.3.29-.5.56-.6.8l-2.47,5.36c-.08.12-.12.31-.12.58,0,.23.04.46.13.68.09.22.22.42.39.6.17.18.38.32.62.44.24.11.52.16.83.16h7.11c.37,0,.77-.08,1.21-.25.44-.16.85-.37,1.25-.61.39-.24.74-.51,1.04-.8s.51-.56.62-.79l2.45-5.36c.09-.13.14-.33.14-.58ZM59.04,14.31l-1.74,3.77c-.18.22-.41.39-.7.5-.28.11-.55.17-.8.17h-3.1c-.25,0-.47-.05-.66-.15s-.29-.25-.29-.46v-.06l1.74-3.77c.2-.23.45-.4.75-.51.3-.11.57-.17.82-.17h3.04c.24,0,.46.05.65.15.19.1.29.25.29.46v.06Z"/>
  <path class="cls-1" d="M92.63,11.06h-11.65s-.03,0-.04,0h-4.71s-.06,0-.09,0h-7.13c-.37,0-.77.08-1.21.25-.43.16-.85.37-1.24.61-.4.24-.74.51-1.05.8-.3.29-.5.56-.6.8l-2.47,5.36c-.08.12-.12.31-.12.58,0,.23.04.46.13.68.09.22.22.42.39.6.17.18.38.32.62.44.24.11.52.16.83.16h7.11c.37,0,.77-.08,1.21-.25.44-.16.85-.37,1.25-.61.39-.24.74-.51,1.04-.8.3-.29.51-.56.62-.79l2.45-5.36c.09-.13.14-.33.14-.58,0-.22-.05-.44-.14-.67-.06-.16-.16-.31-.27-.45.43.13.85.31,1.14.58.76.71,1.65,1.11,2.81,1.19.06.02.13.04.22.04h1.49c.13,0,.2.09.2.27,0,0-.01.06-.03.16l-2.75,5.99c-.08.18-.14.34-.2.48-.05.14-.07.26-.07.37,0,.28.19.42.58.42h1.97c.35,0,.64-.1.86-.32.22-.21.43-.53.63-.96l2.75-5.99c.06-.11.15-.21.26-.3.12-.09.21-.14.29-.14h2.87c.18,0,.36-.05.54-.16.18-.1.36-.24.52-.4.17-.16.32-.34.46-.54s.25-.39.34-.57c.02-.06.06-.16.1-.3.05-.14.08-.27.08-.38,0-.14-.05-.21-.15-.21ZM73.86,14.31l-1.74,3.77c-.18.22-.41.39-.7.5-.28.11-.55.17-.8.17h-3.1c-.25,0-.47-.05-.66-.15s-.29-.25-.29-.46v-.06l1.74-3.77c.2-.23.45-.4.75-.51.3-.11.57-.17.82-.17h3.04c.24,0,.46.05.65.15.19.1.29.25.29.46v.06Z"/>
  <path class="cls-1" d="M40.98,2.76c-.08.06-.1.17-.04.25l1.35,1.91c.06.08.17.1.25.04l.14-.1.84,1.19.4-.28c.4-.28.53-.74.47-1.09-.05-.29,0-.78.16-1.15l.67-.47c.51-.36.87-.78,1.07-1.18l-.48-.68.48.68c.23-.47.26-.92.03-1.24-.23-.33-.66-.46-1.18-.4h0c-.45.05-.96.25-1.47.61l-.52.37c-.42.09-.99-.04-1.28-.21-.31-.18-.78-.2-1.18.08l-.4.28.88,1.24-.17.12ZM44.33,1.24c.31-.22.74-.15.96.17.22.31.15.74-.17.96-.31.22-.74.15-.96-.17-.22-.31-.15-.74.17-.96ZM43.66,2.73l-1.72,1.22-.19-.27,1.72-1.22.19.27Z"/>
  <polygon class="cls-1" points="40.88 4.76 41.36 5.43 41.6 5.27 41.48 5.1 41.7 4.82 42.14 4.71 41.74 4.15 41.45 3.74 41.06 3.18 40.81 3.56 40.47 3.67 40.35 3.5 40.12 3.67 40.59 4.35 40.88 4.76"/>
  <path class="cls-1" d="M40.75,5.42l-.8-1.14c-1.81,1.29-5.07,4.05-4.86,4.36.22.31,3.83-1.95,5.66-3.22Z"/>
</svg>