<?xml version="1.0" encoding="UTF-8"?>
<svg id="drawing2" xmlns="http://www.w3.org/2000/svg" viewBox="0 0 32 32">
  <defs>
    <style>
      .cls-1 {
        fill: #fff;
        stroke-width: 0px;
      }
    </style>
  </defs>
  <path class="cls-1" d="M30.26,7.84c0-.06.02-.36-.3-.71-.26-.29-.76-.61-1.65-.86.11-.6.49-.8.49-.8.27-1.34-.88-1.34-1.65-1.38-.55-.03-.68,1.16-.72,1.84-.71-.07-1.55-.12-2.55-.12-.58,0-1.09.02-1.57.05v-2.97c.38-.57.83-.76.83-.76,1.01-.45,1.11-1.28.31-1.34-1.55-.12-2.07.74-2.25,1.38h-9.28v.28s.06,1.77-.01,3.6h-.28l-.17,2h.3c-.06.5-.13.95-.22,1.31-.03.13-.09.23-.14.34,0,0-.01,0-.02,0,0,0-.54-.2-1.3,1.2-.6.21-1.15.18-1.18.18-2.19-.32-3.93.05-5.16,1.11-1.76,1.52-2.03,4.05-2.03,5.42,0,.35.14.65.4.91.89.86,3.1.94,3.89.94.16,0,.26,0,.28,0h8.3c-4.61,2.32-3.79,7.92-3.76,8.1.11.73,1.64,3.69,6.67,3.69,4.62,0,6.04-1.51,7.07-2.61l.23-.24c1.06-1.11,2.82-2.36,4.01-3.02,1.35-.75,1.44-3.05,1.44-3.15V7.84ZM26.46,25.36c-1.23,1.15-3.03,1.57-5.03-.58-2-2.15-4.22-3.72-5.68-3.92-1.02-.13-2.05.08-2.74.44.72-.8,1.73-1.48,3.14-1.9.03-.01.31-.16.63-.43,1.32-.06,3.93.13,6.44,2.09,0,0,.92-1.21,1.1-2.07,0,0-2.69-2.12-6.48-1.91,0,0,0,0,0-.01,0-.02.02-.04.02-.06,0,0-.01,0-.02,0,.01-.1.03-.2.03-.31v-1.68c1.58.8,5.96,1.25,6.92,1v-2.5c-.52.05-4.21.34-6.92-1.09v-1.56c.78.65,3.13,1.13,5.93,1.13s5.07-.46,5.89-1.1v11.3s0,.11-.02.25c-1.13.87-2.11,1.85-3.24,2.9ZM23.83,8.96c-2.99,0-4.84-.61-5.05-.96.21-.35,2.06-.96,5.05-.96s4.92.64,5.06.94c-.14.34-2.01.98-5.06.98ZM29.68,7.67s.03.08.03.1c-.01-.03-.02-.07-.03-.1ZM22.47,1.44c.95-.31.19.1-.41.72h-.34c.14-.28.36-.59.75-.72ZM8.86,11.61s.91.04,1.77-.37c.56.22,1.4.63,2.03,1.33l1.19-1.54s-.78-.66-1.94-1.14c.06-.13.13-.25.17-.41.1-.4.18-.9.24-1.45h1.96v-2h-1.82c.02-.47.03-.92.03-1.34h8.95l.33.3v.9c-2.39.22-3.51.79-4,1.3-.41.42-.42.79-.42.83v4.12s-.39,1.43-.02,2.4c0,0,.01.02.02.03v2.12c0,.14-.02.27-.05.4-.04,0-.08,0-.12,0,0,0-.04.04-.05.04-1.2.25-2.22.5-2.85.57-1.34.15-3.55-.04-4.7-3.19-.74-2.02-1.78-2.74-2.44-3,.53-.02,1.09,0,1.71.08ZM15.15,19.17h.07s-.05.02-.07.03v-.03Z"/>
</svg>